<svg viewBox="0 0 8 8" xmlns="http://www.w3.org/2000/svg"><path d="M21.577 3.381a1.126 1.126 0 00-1.591 0L8.614 14.754l-4.6-4.6a1.126 1.126 0 00-1.591 0L.33 12.248a1.127 1.127 0 000 1.591l7.364 7.364c.246.246.573.382.92.382s.674-.136.92-.382L23.67 7.065a1.127 1.127 0 000-1.591l-2.093-2.093zm1.386 2.977L8.827 20.496a.305.305 0 01-.425 0l-7.365-7.364a.125.125 0 010-.177l2.094-2.094c.021-.021.055-.031.088-.031s.067.011.088.031l4.954 4.953c.188.188.52.188.707 0L20.693 4.088a.125.125 0 01.177 0l2.094 2.094a.125.125 0 01-.001.176z"/></svg>